HIERARCHY
ROOT joint_Root
{
	OFFSET 0.0 0.0 0.0
	CHANNELS 6 Xposition Yposition Zposition Zrotation Xrotation Yrotation 
	JOINT Hips
	{
		OFFSET 4.5925 91.4895 -427.239
		CHANNELS 6 Xposition Yposition Zposition Zrotation Xrotation Yrotation 
		JOINT Spine
		{
			OFFSET 15.7357 0.0 0.0
			CHANNELS 6 Xposition Yposition Zposition Zrotation Xrotation Yrotation 
			JOINT Chest
			{
				OFFSET 8.98455 -0.406207 0.0
				CHANNELS 6 Xposition Yposition Zposition Zrotation Xrotation Yrotation 
				JOINT Neck
				{
					OFFSET 16.3773 0.0 0.0
					CHANNELS 6 Xposition Yposition Zposition Zrotation Xrotation Yrotation 
					JOINT Head
					{
						OFFSET 6.45672 0.0 0.0
						CHANNELS 6 Xposition Yposition Zposition Zrotation Xrotation Yrotation 
						End Site
						{
							OFFSET 0.0 0.0 0.0
						}
					}
				}
				JOINT Shoulder_L
				{
					OFFSET 12.9942 -0.242716 4.98039
					CHANNELS 6 Xposition Yposition Zposition Zrotation Xrotation Yrotation 
					JOINT UpperArm_L
					{
						OFFSET 5.34809 0.0 0.0
						CHANNELS 6 Xposition Yposition Zposition Zrotation Xrotation Yrotation 
						JOINT LowerArm_L
						{
							OFFSET 24.3286 1.87007e-05 0.0
							CHANNELS 6 Xposition Yposition Zposition Zrotation Xrotation Yrotation 
							JOINT Hand_L
							{
								OFFSET 22.2916 0.0 0.0
								CHANNELS 6 Xposition Yposition Zposition Zrotation Xrotation Yrotation 
								End Site
								{
									OFFSET 0.0 0.0 0.0
								}
							}
						}
					}
				}
				JOINT Shoulder_R
				{
					OFFSET 12.9945 -0.242716 -4.98039
					CHANNELS 6 Xposition Yposition Zposition Zrotation Xrotation Yrotation 
					JOINT UpperArm_R
					{
						OFFSET -5.34813 0.0 0.0
						CHANNELS 6 Xposition Yposition Zposition Zrotation Xrotation Yrotation 
						JOINT LowerArm_R
						{
							OFFSET -24.3289 0.000322201 0.0
							CHANNELS 6 Xposition Yposition Zposition Zrotation Xrotation Yrotation 
							JOINT Hand_R
							{
								OFFSET -22.2915 -0.000108084 0.0
								CHANNELS 6 Xposition Yposition Zposition Zrotation Xrotation Yrotation 
								End Site
								{
									OFFSET 0.0 0.0 0.0
								}
							}
						}
					}
				}
			}
		}
		JOINT UpperLeg_L
		{
			OFFSET -2.19248 -6.46944 0.0
			CHANNELS 6 Xposition Yposition Zposition Zrotation Xrotation Yrotation 
			JOINT LowerLeg_L
			{
				OFFSET 39.0811 0.0 -1.23785e-05
				CHANNELS 6 Xposition Yposition Zposition Zrotation Xrotation Yrotation 
				JOINT Foot_L
				{
					OFFSET 40.9854 0.0 -1.26872e-05
					CHANNELS 6 Xposition Yposition Zposition Zrotation Xrotation Yrotation 
					JOINT Toes_L
					{
						OFFSET 11.7543 0.0 0.0
						CHANNELS 6 Xposition Yposition Zposition Zrotation Xrotation Yrotation 
						End Site
						{
							OFFSET 0.0 0.0 0.0
						}
					}
				}
			}
		}
		JOINT UpperLeg_R
		{
			OFFSET -2.19251 6.46944 0.0
			CHANNELS 6 Xposition Yposition Zposition Zrotation Xrotation Yrotation 
			JOINT LowerLeg_R
			{
				OFFSET -39.0811 -0.00228153 -0.0401928
				CHANNELS 6 Xposition Yposition Zposition Zrotation Xrotation Yrotation 
				JOINT Foot_R
				{
					OFFSET -40.9854 0.0 0.0
					CHANNELS 6 Xposition Yposition Zposition Zrotation Xrotation Yrotation 
					JOINT Toes_R
					{
						OFFSET -11.7543 0.0 0.0
						CHANNELS 6 Xposition Yposition Zposition Zrotation Xrotation Yrotation 
						End Site
						{
							OFFSET 0.0 0.0 0.0
						}
					}
				}
			}
		}
	}
}
MOTION
Frames:	6
Frame Time:	0.0333333
0.000000 0.000000 0.000000 0.000000 0.000000 -0.000000 -5.559010 91.113500 3.387260 88.645800 4.819520 2.874380 15.735700 0.000005 -0.000001 88.172300 86.681100 -91.496900 8.984550 -0.406207 -0.000000 -1.121490 0.045940 -6.646300 16.377300 -0.000001 -0.000001 11.843200 -5.528890 6.436020 6.456720 -0.000001 -0.000000 6.548680 -4.411680 -3.697510 12.994200 -0.242716 4.980390 -91.604400 3.942460 -67.835000 5.348090 -0.000007 -0.000001 -61.382600 18.488200 -7.831070 24.328600 0.000019 0.000005 7.820430 19.583000 -22.282600 22.291600 -0.000001 0.000005 13.486000 5.146360 4.030050 12.994500 -0.242716 -4.980390 94.190700 -9.829600 -66.771000 -5.348130 -0.000001 -0.000004 -35.037300 -70.882900 -73.533200 -24.328900 0.000322 -0.000009 -6.698370 -5.159430 -52.553200 -22.291500 -0.000108 -0.000004 21.445300 5.506930 -6.815280 -2.192480 -6.469440 -0.000000 -171.135000 -10.197500 -3.782490 39.081100 -0.000007 -0.000012 -0.193016 0.390471 26.304200 40.985400 -0.000006 -0.000013 -2.403900 11.339700 -69.327600 11.754300 -0.000000 0.000003 -0.000113 -0.001146 -16.621400 -2.192510 6.469440 -0.000001 179.673000 28.171300 179.608000 -39.081100 -0.002282 -0.040193 0.009688 -0.013761 24.859800 -40.985400 0.000008 0.000006 10.017300 12.611200 -73.375100 -11.754300 -0.000006 -0.000006 -0.001897 -0.027420 -17.688100
0.000000 0.000000 0.000000 0.000000 0.000000 -0.000000 -5.453190 91.123400 3.403680 88.658500 4.565120 2.876500 15.735700 0.000005 -0.000001 88.748600 86.679800 -91.968000 8.984550 -0.406207 -0.000000 -1.116220 0.104324 -6.435100 16.377300 -0.000001 -0.000001 11.823400 -5.457980 6.293330 6.456720 -0.000001 -0.000000 6.449150 -4.323240 -3.925830 12.994200 -0.242716 4.980390 -91.674200 4.091230 -67.721900 5.348090 -0.000007 -0.000001 -61.478500 19.160400 -8.230160 24.328600 0.000019 0.000005 7.825400 19.604900 -22.274000 22.291600 -0.000001 0.000005 13.744900 5.145170 4.058640 12.994500 -0.242716 -4.980390 94.120700 -9.725010 -66.901600 -5.348130 -0.000001 -0.000004 -34.335300 -70.654200 -72.186400 -24.328900 0.000322 -0.000009 -7.275240 -5.330060 -53.953800 -22.291500 -0.000108 -0.000004 21.553100 5.504300 -6.707560 -2.192480 -6.469440 -0.000000 -171.235000 -10.228300 -3.694290 39.081100 -0.000007 -0.000012 -0.196507 0.398219 26.265000 40.985400 -0.000006 -0.000013 -2.378580 11.100300 -69.365100 11.754300 -0.000000 0.000003 -0.000108 -0.001096 -16.619500 -2.192510 6.469440 -0.000001 179.492000 28.335500 179.678000 -39.081100 -0.002282 -0.040193 0.009156 -0.012631 24.829800 -40.985400 0.000008 0.000006 10.079400 13.013700 -73.433200 -11.754300 -0.000006 -0.000006 -0.002023 -0.028998 -17.752300
0.000000 0.000000 0.000000 0.000000 0.000000 -0.000000 -5.315710 91.137300 3.391690 88.587600 4.196030 2.870220 15.735700 0.000005 -0.000001 88.770900 86.667900 -91.838000 8.984550 -0.406207 -0.000000 -1.093380 0.094008 -6.130870 16.377300 -0.000001 -0.000001 11.759700 -5.319350 6.141990 6.456720 -0.000001 -0.000000 6.411210 -4.131610 -4.166900 12.994200 -0.242716 4.980390 -91.732300 4.218930 -67.652700 5.348090 -0.000007 -0.000001 -61.787800 19.922400 -8.524570 24.328600 0.000019 0.000005 7.785940 19.789500 -21.991700 22.291600 -0.000001 0.000005 13.835700 5.140640 4.165860 12.994500 -0.242716 -4.980390 93.982500 -9.507530 -67.145300 -5.348130 -0.000001 -0.000004 -32.328500 -69.779000 -69.160500 -24.328900 0.000322 -0.000009 -7.600020 -5.277920 -55.412900 -22.291500 -0.000108 -0.000004 21.603200 5.497590 -6.436450 -2.192480 -6.469440 -0.000000 -171.294000 -10.306400 -3.634300 39.081100 -0.000007 -0.000012 -0.193206 0.391175 26.285700 40.985400 -0.000006 -0.000013 -2.348590 10.740000 -69.438900 11.754300 -0.000000 0.000003 -0.000120 -0.001201 -16.623400 -2.192510 6.469440 -0.000001 179.413000 28.344600 179.684000 -39.081100 -0.002282 -0.040193 0.007475 -0.009016 24.784000 -40.985400 0.000008 0.000006 9.982640 13.437600 -73.369200 -11.754300 -0.000006 -0.000006 -0.001812 -0.026336 -17.644000
0.000000 0.000000 0.000000 0.000000 0.000000 -0.000000 -5.141460 91.147100 3.347580 88.522600 3.628610 2.909860 15.735700 0.000005 -0.000001 88.747000 86.620300 -91.653900 8.984550 -0.406207 -0.000000 -0.999660 0.074401 -5.810640 16.377300 -0.000001 -0.000001 11.556300 -5.123850 5.923040 6.456720 -0.000001 -0.000000 6.494110 -3.938940 -4.278920 12.994200 -0.242716 4.980390 -91.793200 4.364520 -67.638800 5.348090 -0.000007 -0.000001 -62.176100 20.979500 -8.755210 24.328600 0.000019 0.000005 7.588590 19.852400 -21.420100 22.291600 -0.000001 0.000005 13.876800 5.137930 4.230290 12.994500 -0.242716 -4.980390 93.710100 -8.991270 -67.465900 -5.348130 -0.000001 -0.000004 -29.780700 -68.038000 -65.281100 -24.328900 0.000322 -0.000009 -7.821150 -5.110760 -57.031100 -22.291500 -0.000108 -0.000004 21.449200 5.487380 -6.033380 -2.192480 -6.469440 -0.000000 -171.390000 -10.314300 -3.529590 39.081100 -0.000007 -0.000012 -0.193850 0.391577 26.337900 40.985400 -0.000006 -0.000013 -2.331040 10.211100 -69.541500 11.754300 -0.000000 0.000003 -0.000133 -0.001309 -16.627400 -2.192510 6.469440 -0.000001 179.283000 28.229900 179.685000 -39.081100 -0.002282 -0.040193 0.007690 -0.009466 24.816700 -40.985400 0.000008 0.000006 10.066700 13.903700 -73.389100 -11.754300 -0.000006 -0.000006 -0.002037 -0.029179 -17.759600
0.000000 0.000000 0.000000 0.000000 0.000000 -0.000000 -4.918970 91.155200 3.297460 88.483200 2.871280 3.021330 15.735700 0.000005 -0.000001 88.881700 86.542600 -91.619800 8.984550 -0.406207 -0.000000 -0.844957 0.070661 -5.473120 16.377300 -0.000001 -0.000001 11.290600 -4.918600 5.697490 6.456720 -0.000001 -0.000000 6.515990 -3.707990 -4.397550 12.994200 -0.242716 4.980390 -91.861800 4.530980 -67.633700 5.348090 -0.000007 -0.000001 -62.670600 22.291400 -8.976000 24.328600 0.000019 0.000005 7.323370 19.956000 -20.634200 22.291600 -0.000001 0.000005 13.625000 5.133180 4.342490 12.994500 -0.242716 -4.980390 93.325200 -8.242230 -67.938700 -5.348130 -0.000001 -0.000004 -26.924000 -65.313800 -60.541200 -24.328900 0.000322 -0.000009 -8.145760 -4.898030 -59.178800 -22.291500 -0.000108 -0.000004 21.182400 5.476340 -5.608680 -2.192480 -6.469440 -0.000000 -171.515000 -10.593800 -3.317250 39.081100 -0.000007 -0.000012 -0.194893 0.392519 26.405600 40.985400 -0.000006 -0.000013 -2.272160 9.681090 -69.662000 11.754300 -0.000000 0.000003 -0.000134 -0.001318 -16.627800 -2.192510 6.469440 -0.000001 179.103000 27.855000 179.711000 -39.081100 -0.002282 -0.040193 0.006457 -0.006785 24.864700 -40.985400 0.000008 0.000006 9.963060 14.322500 -73.363900 -11.754300 -0.000006 -0.000006 -0.001679 -0.024623 -17.574400
0.000000 0.000000 0.000000 0.000000 0.000000 -0.000000 -4.649850 91.157900 3.236290 88.436700 2.004600 3.156410 15.735700 0.000005 -0.000001 88.687800 86.444400 -91.249200 8.984550 -0.406207 -0.000000 -0.651047 0.025199 -5.120100 16.377300 -0.000001 -0.000001 10.953200 -4.735710 5.374630 6.456720 -0.000001 -0.000000 6.429190 -3.424670 -4.291350 12.994200 -0.242716 4.980390 -91.906800 4.654270 -67.692700 5.348090 -0.000007 -0.000001 -63.320000 23.761500 -9.079260 24.328600 0.000019 0.000005 7.081410 20.172300 -19.810900 22.291600 -0.000001 0.000005 13.507900 5.132400 4.361210 12.994500 -0.242716 -4.980390 92.806200 -7.213860 -68.677900 -5.348130 -0.000001 -0.000004 -24.467800 -61.577200 -55.506600 -24.328900 0.000322 -0.000009 -8.525520 -4.563660 -62.037700 -22.291500 -0.000108 -0.000004 20.920600 5.469580 -5.354870 -2.192480 -6.469440 -0.000000 -171.652000 -10.938800 -3.083070 39.081100 -0.000007 -0.000012 -0.194841 0.390520 26.516200 40.985400 -0.000006 -0.000013 -2.183600 9.139080 -69.820100 11.754300 -0.000000 0.000003 -0.000138 -0.001352 -16.629100 -2.192510 6.469440 -0.000001 178.872000 27.387900 179.718000 -39.081100 -0.002282 -0.040193 0.000614 0.005788 24.995600 -40.985400 0.000008 0.000006 9.831210 14.819400 -73.329700 -11.754300 -0.000006 -0.000006 -0.001545 -0.022873 -17.503200
